<?xml version="1.0" encoding="UTF-8" standalone="no"?>
<!-- Generator: Adobe Illustrator 16.0.0, SVG Export Plug-In . SVG Version: 6.00 Build 0)  -->

<svg
   xmlns:dc="http://purl.org/dc/elements/1.1/"
   xmlns:cc="http://creativecommons.org/ns#"
   xmlns:rdf="http://www.w3.org/1999/02/22-rdf-syntax-ns#"
   xmlns:svg="http://www.w3.org/2000/svg"
   xmlns="http://www.w3.org/2000/svg"
   xmlns:sodipodi="http://sodipodi.sourceforge.net/DTD/sodipodi-0.dtd"
   xmlns:inkscape="http://www.inkscape.org/namespaces/inkscape"
   version="1.1"
   id="Capa_1"
   x="0px"
   y="0px"
   width="442.833px"
   height="442.833px"
   viewBox="0 0 442.833 442.833"
   style="enable-background:new 0 0 442.833 442.833;"
   xml:space="preserve"
   inkscape:version="0.48.4 r9939"
   sodipodi:docname="chat1.svg"><metadata
     id="metadata49"><rdf:RDF><cc:Work
         rdf:about=""><dc:format>image/svg+xml</dc:format><dc:type
           rdf:resource="http://purl.org/dc/dcmitype/StillImage" /></cc:Work></rdf:RDF></metadata><defs
     id="defs47" /><sodipodi:namedview
     pagecolor="#ffffff"
     bordercolor="#666666"
     borderopacity="1"
     objecttolerance="10"
     gridtolerance="10"
     guidetolerance="10"
     inkscape:pageopacity="0"
     inkscape:pageshadow="2"
     inkscape:window-width="1869"
     inkscape:window-height="1056"
     id="namedview45"
     showgrid="false"
     inkscape:zoom="0.53293227"
     inkscape:cx="221.4165"
     inkscape:cy="221.4165"
     inkscape:window-x="51"
     inkscape:window-y="24"
     inkscape:window-maximized="1"
     inkscape:current-layer="Capa_1" /><path
     d="M 361.062,18.189 H 81.772 C 36.683,18.189 0,54.869 0,99.96 v 170.042 c 0,45.092 36.683,81.773 81.772,81.773 h 192.803 l 69.686,69.676 c 2.084,2.088 4.873,3.193 7.711,3.193 1.402,0 2.822,-0.268 4.168,-0.828 4.076,-1.684 6.732,-5.666 6.732,-10.072 v -61.99 c 44.256,-0.969 79.961,-37.269 79.961,-81.752 V 99.961 c 0,-45.092 -36.682,-81.772 -81.771,-81.772 z m 59.966,251.812 c 0,33.061 -26.9,59.967 -59.968,59.967 h -9.094 c -6.021,0 -10.901,4.877 -10.901,10.902 v 46.553 l -54.267,-54.262 c -2.043,-2.043 -4.817,-3.193 -7.707,-3.193 H 81.772 c -33.065,0 -59.967,-26.906 -59.967,-59.967 V 99.961 c 0,-33.07 26.902,-59.967 59.967,-59.967 h 279.289 c 33.066,0 59.968,26.896 59.968,59.967 v 170.04 z"
     id="path7"
     inkscape:connector-curvature="0"
     style="fill:#ffffff" /><g
     id="g15" /><g
     id="g17" /><g
     id="g19" /><g
     id="g21" /><g
     id="g23" /><g
     id="g25" /><g
     id="g27" /><g
     id="g29" /><g
     id="g31" /><g
     id="g33" /><g
     id="g35" /><g
     id="g37" /><g
     id="g39" /><g
     id="g41" /><g
     id="g43" /></svg>