<?xml version="1.0" encoding="UTF-8" standalone="no"?>
<!-- Generator: Adobe Illustrator 16.0.0, SVG Export Plug-In . SVG Version: 6.00 Build 0)  -->

<svg
   xmlns:dc="http://purl.org/dc/elements/1.1/"
   xmlns:cc="http://creativecommons.org/ns#"
   xmlns:rdf="http://www.w3.org/1999/02/22-rdf-syntax-ns#"
   xmlns:svg="http://www.w3.org/2000/svg"
   xmlns="http://www.w3.org/2000/svg"
   xmlns:sodipodi="http://sodipodi.sourceforge.net/DTD/sodipodi-0.dtd"
   xmlns:inkscape="http://www.inkscape.org/namespaces/inkscape"
   version="1.1"
   id="Capa_1"
   x="0px"
   y="0px"
   width="442.833px"
   height="442.833px"
   viewBox="0 0 442.833 442.833"
   style="enable-background:new 0 0 442.833 442.833;"
   xml:space="preserve"
   inkscape:version="0.48.4 r9939"
   sodipodi:docname="chat1.svg"><metadata
     id="metadata49"><rdf:RDF><cc:Work
         rdf:about=""><dc:format>image/svg+xml</dc:format><dc:type
           rdf:resource="http://purl.org/dc/dcmitype/StillImage" /><dc:title></dc:title></cc:Work></rdf:RDF></metadata><defs
     id="defs47" /><sodipodi:namedview
     pagecolor="#ffffff"
     bordercolor="#666666"
     borderopacity="1"
     objecttolerance="10"
     gridtolerance="10"
     guidetolerance="10"
     inkscape:pageopacity="0"
     inkscape:pageshadow="2"
     inkscape:window-width="1869"
     inkscape:window-height="1056"
     id="namedview45"
     showgrid="false"
     inkscape:zoom="0.53293227"
     inkscape:cx="-162.30956"
     inkscape:cy="221.4165"
     inkscape:window-x="51"
     inkscape:window-y="24"
     inkscape:window-maximized="1"
     inkscape:current-layer="Capa_1" /><path
     d="m 361.062,18.189 -279.29,0 C 36.683,18.189 0,54.869 0,99.96 l 0,170.042 c 0,45.092 36.683,81.773 81.772,81.773 l 192.803,0 69.686,69.676 c 2.084,2.088 4.873,3.193 7.711,3.193 1.402,0 2.822,-0.268 4.168,-0.828 4.076,-1.684 6.732,-5.666 6.732,-10.072 l 0,-61.99 c 44.256,-0.969 79.961,-37.269 79.961,-81.752 l 0,-170.041 c 0,-45.092 -36.682,-81.772 -81.771,-81.772 z"
     id="path7"
     inkscape:connector-curvature="0"
     style="fill:#ffffff;fill-opacity:1"
     sodipodi:nodetypes="sssssccscscsss" /><path
     style="fill:#000000"
     d="m 119.199,161.248 c -13.549,0 -24.531,10.988 -24.531,24.532 0,13.554 10.982,24.532 24.531,24.532 13.543,0 24.532,-10.979 24.532,-24.532 0,-13.544 -10.989,-24.532 -24.532,-24.532 z"
     id="path9"
     inkscape:connector-curvature="0" /><path
     style="fill:#000000"
     d="m 221.415,161.248 c -13.549,0 -24.532,10.988 -24.532,24.532 0,13.554 10.983,24.532 24.532,24.532 13.543,0 24.532,-10.979 24.532,-24.532 -0.001,-13.544 -10.989,-24.532 -24.532,-24.532 z"
     id="path11"
     inkscape:connector-curvature="0" /><path
     style="fill:#000000"
     d="m 323.632,161.248 c -13.549,0 -24.533,10.988 -24.533,24.532 0,13.554 10.984,24.532 24.533,24.532 13.543,0 24.529,-10.979 24.529,-24.532 0,-13.544 -10.986,-24.532 -24.529,-24.532 z"
     id="path13"
     inkscape:connector-curvature="0" /><g
     id="g15" /><g
     id="g17" /><g
     id="g19" /><g
     id="g21" /><g
     id="g23" /><g
     id="g25" /><g
     id="g27" /><g
     id="g29" /><g
     id="g31" /><g
     id="g33" /><g
     id="g35" /><g
     id="g37" /><g
     id="g39" /><g
     id="g41" /><g
     id="g43" /></svg>