<?xml version="1.0" encoding="UTF-8" standalone="no"?>
<!-- Generator: Adobe Illustrator 16.0.0, SVG Export Plug-In . SVG Version: 6.00 Build 0)  -->

<svg
   xmlns:dc="http://purl.org/dc/elements/1.1/"
   xmlns:cc="http://creativecommons.org/ns#"
   xmlns:rdf="http://www.w3.org/1999/02/22-rdf-syntax-ns#"
   xmlns:svg="http://www.w3.org/2000/svg"
   xmlns="http://www.w3.org/2000/svg"
   xmlns:sodipodi="http://sodipodi.sourceforge.net/DTD/sodipodi-0.dtd"
   xmlns:inkscape="http://www.inkscape.org/namespaces/inkscape"
   version="1.1"
   id="Layer_1"
   x="0px"
   y="0px"
   width="48px"
   height="48px"
   viewBox="0 0 48 48"
   enable-background="new 0 0 48 48"
   xml:space="preserve"
   inkscape:version="0.48.4 r9939"
   sodipodi:docname="estrelaVaziaBranca.svg"><metadata
     id="metadata9"><rdf:RDF><cc:Work
         rdf:about=""><dc:format>image/svg+xml</dc:format><dc:type
           rdf:resource="http://purl.org/dc/dcmitype/StillImage" /><dc:title></dc:title></cc:Work></rdf:RDF></metadata><defs
     id="defs7" /><sodipodi:namedview
     pagecolor="#ffffff"
     bordercolor="#666666"
     borderopacity="1"
     objecttolerance="10"
     gridtolerance="10"
     guidetolerance="10"
     inkscape:pageopacity="0"
     inkscape:pageshadow="2"
     inkscape:window-width="1869"
     inkscape:window-height="1056"
     id="namedview5"
     showgrid="false"
     inkscape:zoom="4.9166667"
     inkscape:cx="-59.18644"
     inkscape:cy="24"
     inkscape:window-x="51"
     inkscape:window-y="24"
     inkscape:window-maximized="1"
     inkscape:current-layer="Layer_1" /><path
     style="stroke:none;stroke-width:1;stroke-miterlimit:4;stroke-dasharray:none;fill:#1c8113;stroke-opacity:1;fill-opacity:1"
     d="M 24.0625 2.6875 C 23.412788 2.6875 22.819905 3.0419742 22.53125 3.625 L 17.03125 14.78125 C 16.782606 15.286158 16.306351 15.60652 15.75 15.6875 L 3.4375 17.5 C 2.7925516 17.593361 2.2635105 18.037976 2.0625 18.65625 C 1.8614895 19.274524 2.0341509 19.951833 2.5 20.40625 L 11.40625 29.0625 C 11.809223 29.454994 11.97027 30.039304 11.875 30.59375 L 9.78125 42.84375 C 9.6716945 43.484888 9.9419309 44.117985 10.46875 44.5 C 10.995569 44.882016 11.705845 44.927944 12.28125 44.625 L 23.25 38.84375 C 23.748239 38.581769 24.346463 38.581769 24.84375 38.84375 L 35.84375 44.625 C 36.420107 44.926992 37.129431 44.882016 37.65625 44.5 C 38.18307 44.117985 38.453306 43.484888 38.34375 42.84375 L 36.25 30.59375 C 36.155687 30.039304 36.315776 29.454994 36.71875 29.0625 L 45.625 20.40625 C 46.090846 19.952786 46.26351 19.274524 46.0625 18.65625 C 45.861489 18.037976 45.331496 17.59336 44.6875 17.5 L 32.375 15.6875 C 31.817696 15.606524 31.342393 15.285205 31.09375 14.78125 L 25.59375 3.625 C 25.306048 3.0419742 24.712212 2.6875 24.0625 2.6875 z M 23.9375 13.09375 C 24.311395 13.09375 24.678184 13.28948 24.84375 13.625 L 28 20.0625 C 28.143089 20.352516 28.429283 20.54715 28.75 20.59375 L 35.8125 21.625 C 36.183106 21.67873 36.478072 21.925446 36.59375 22.28125 C 36.709427 22.637054 36.611838 23.020291 36.34375 23.28125 L 31.25 28.28125 C 31.018097 28.507122 30.914475 28.837178 30.96875 29.15625 L 32.15625 36.1875 C 32.2193 36.556462 32.084419 36.936408 31.78125 37.15625 C 31.478077 37.376092 31.081682 37.423788 30.75 37.25 L 24.40625 33.90625 C 24.120071 33.755485 23.786726 33.755485 23.5 33.90625 L 17.15625 37.25 C 16.825116 37.424338 16.428173 37.376092 16.125 37.15625 C 15.821826 36.936408 15.686954 36.556462 15.75 36.1875 L 16.9375 29.15625 C 16.99233 28.837178 16.888157 28.507122 16.65625 28.28125 L 11.53125 23.28125 C 11.263164 23.019743 11.165573 22.637054 11.28125 22.28125 C 11.396927 21.925446 11.722596 21.678727 12.09375 21.625 L 19.15625 20.59375 C 19.476419 20.54715 19.763161 20.353064 19.90625 20.0625 L 23.0625 13.625 C 23.228615 13.28948 23.563604 13.09375 23.9375 13.09375 z "
     id="path3" /></svg>