<?xml version="1.0" encoding="UTF-8" standalone="no"?>
<!-- Generator: Adobe Illustrator 16.0.0, SVG Export Plug-In . SVG Version: 6.00 Build 0)  -->

<svg
   xmlns:dc="http://purl.org/dc/elements/1.1/"
   xmlns:cc="http://creativecommons.org/ns#"
   xmlns:rdf="http://www.w3.org/1999/02/22-rdf-syntax-ns#"
   xmlns:svg="http://www.w3.org/2000/svg"
   xmlns="http://www.w3.org/2000/svg"
   xmlns:sodipodi="http://sodipodi.sourceforge.net/DTD/sodipodi-0.dtd"
   xmlns:inkscape="http://www.inkscape.org/namespaces/inkscape"
   version="1.1"
   id="Layer_1"
   x="0px"
   y="0px"
   width="48px"
   height="48px"
   viewBox="0 0 48 48"
   enable-background="new 0 0 48 48"
   xml:space="preserve"
   inkscape:version="0.48.4 r9939"
   sodipodi:docname="estrelaCheiaBranca.svg"><metadata
     id="metadata9"><rdf:RDF><cc:Work
         rdf:about=""><dc:format>image/svg+xml</dc:format><dc:type
           rdf:resource="http://purl.org/dc/dcmitype/StillImage" /><dc:title /></cc:Work></rdf:RDF></metadata><defs
     id="defs7" /><sodipodi:namedview
     pagecolor="#ffffff"
     bordercolor="#666666"
     borderopacity="1"
     objecttolerance="10"
     gridtolerance="10"
     guidetolerance="10"
     inkscape:pageopacity="0"
     inkscape:pageshadow="2"
     inkscape:window-width="1869"
     inkscape:window-height="1056"
     id="namedview5"
     showgrid="false"
     inkscape:zoom="4.9166667"
     inkscape:cx="-17.59322"
     inkscape:cy="24"
     inkscape:window-x="51"
     inkscape:window-y="24"
     inkscape:window-maximized="1"
     inkscape:current-layer="Layer_1" /><path
     d="m 22.530131,3.6263191 c 0.288655,-0.5830258 0.883112,-0.9526565 1.532824,-0.9526565 0.649712,0 1.245122,0.3696307 1.532824,0.9526565 L 31.09356,14.767636 c 0.248643,0.503955 0.729735,0.85358 1.287039,0.934556 l 12.296889,1.78623 c 0.643996,0.09336 1.178436,0.54492 1.379447,1.163194 0.20101,0.618274 0.03334,1.298471 -0.432506,1.751935 l -8.895906,8.672985 c -0.402974,0.392494 -0.586837,0.958372 -0.492524,1.512818 l 2.099655,12.247351 c 0.109556,0.641138 -0.153377,1.289897 -0.680197,1.671912 -0.526819,0.382016 -1.224163,0.432506 -1.80052,0.130514 L 24.856518,38.856507 c -0.497287,-0.261981 -1.092697,-0.261981 -1.590936,0 L 12.268116,44.638179 C 11.692711,44.941123 10.994414,44.890633 10.467595,44.508617 9.9407759,44.126602 9.6778427,43.477843 9.7873982,42.836705 L 11.887053,30.589354 c 0.09527,-0.554446 -0.08955,-1.120324 -0.492523,-1.512818 L 2.497671,20.403551 C 2.0318219,19.949134 1.8641544,19.26989 2.0651649,18.651616 2.2661754,18.033342 2.8006157,17.581783 3.4455641,17.488422 l 12.2968899,-1.78623 c 0.556351,-0.08098 1.038395,-0.430601 1.287039,-0.935509 L 22.530131,3.6263191 z"
     id="path3"
     style="stroke:none;stroke-width:1;stroke-miterlimit:4;stroke-dasharray:none;fill:#ffffff;stroke-opacity:1"
     inkscape:connector-curvature="0" /></svg>