<?xml version="1.0" encoding="UTF-8" standalone="no"?>
<!-- Generator: Adobe Illustrator 16.0.0, SVG Export Plug-In . SVG Version: 6.00 Build 0)  -->

<svg
   xmlns:dc="http://purl.org/dc/elements/1.1/"
   xmlns:cc="http://creativecommons.org/ns#"
   xmlns:rdf="http://www.w3.org/1999/02/22-rdf-syntax-ns#"
   xmlns:svg="http://www.w3.org/2000/svg"
   xmlns="http://www.w3.org/2000/svg"
   xmlns:sodipodi="http://sodipodi.sourceforge.net/DTD/sodipodi-0.dtd"
   xmlns:inkscape="http://www.inkscape.org/namespaces/inkscape"
   version="1.1"
   id="Layer_1"
   x="0px"
   y="0px"
   width="48px"
   height="48px"
   viewBox="0 0 48 48"
   enable-background="new 0 0 48 48"
   xml:space="preserve"
   inkscape:version="0.48.4 r9939"
   sodipodi:docname="excluirBranco.svg"><metadata
     id="metadata9"><rdf:RDF><cc:Work
         rdf:about=""><dc:format>image/svg+xml</dc:format><dc:type
           rdf:resource="http://purl.org/dc/dcmitype/StillImage" /></cc:Work></rdf:RDF></metadata><defs
     id="defs7" /><sodipodi:namedview
     pagecolor="#ffffff"
     bordercolor="#666666"
     borderopacity="1"
     objecttolerance="10"
     gridtolerance="10"
     guidetolerance="10"
     inkscape:pageopacity="0"
     inkscape:pageshadow="2"
     inkscape:window-width="1869"
     inkscape:window-height="1056"
     id="namedview5"
     showgrid="false"
     showguides="true"
     inkscape:guide-bbox="true"
     inkscape:zoom="13.906433"
     inkscape:cx="17.049149"
     inkscape:cy="22.338436"
     inkscape:window-x="51"
     inkscape:window-y="24"
     inkscape:window-maximized="1"
     inkscape:current-layer="Layer_1" /><path
     d="m 23.974478,29.360596 9.914512,9.923552 c 1.568874,1.570305 4.11333,1.571464 5.68283,0.0026 1.5695,-1.567266 1.57066,-4.113329 0.0026,-5.682025 l -9.915316,-9.924357 9.924357,-9.915317 C 41.15295,12.197773 41.15411,9.6517109 39.586039,8.0830146 38.017164,6.5127092 35.47271,6.5115498 33.90321,8.0804246 L 23.979657,17.994938 14.065144,8.0713851 C 12.49627,6.5010806 9.951816,6.4999211 8.3823155,8.0687952 7.5975653,8.8528305 7.2048993,9.8813644 7.2044316,10.909272 c -4.685e-4,1.027908 0.3912586,2.057603 1.1752948,2.841549 l 9.9145116,9.924356 -9.9243562,9.915316 c -0.7847502,0.784035 -1.1774157,1.812568 -1.1778834,2.840477 -4.691e-4,1.027908 0.3912578,2.057602 1.1752942,2.841548 1.5688742,1.570305 4.1133284,1.571464 5.6828284,0.0026 l 9.924357,-9.914512 z"
     id="path3"
     style="fill:#ffffff"
     inkscape:connector-curvature="0" /></svg>