<?xml version="1.0" encoding="UTF-8" standalone="no"?>
<!-- Generator: Adobe Illustrator 16.0.0, SVG Export Plug-In . SVG Version: 6.00 Build 0)  -->

<svg
   xmlns:dc="http://purl.org/dc/elements/1.1/"
   xmlns:cc="http://creativecommons.org/ns#"
   xmlns:rdf="http://www.w3.org/1999/02/22-rdf-syntax-ns#"
   xmlns:svg="http://www.w3.org/2000/svg"
   xmlns="http://www.w3.org/2000/svg"
   xmlns:sodipodi="http://sodipodi.sourceforge.net/DTD/sodipodi-0.dtd"
   xmlns:inkscape="http://www.inkscape.org/namespaces/inkscape"
   version="1.1"
   id="Layer_1"
   x="0px"
   y="0px"
   width="48px"
   height="48px"
   viewBox="0 0 48 48"
   enable-background="new 0 0 48 48"
   xml:space="preserve"
   inkscape:version="0.48.4 r9939"
   sodipodi:docname="excluirBranco.svg"><metadata
     id="metadata9"><rdf:RDF><cc:Work
         rdf:about=""><dc:format>image/svg+xml</dc:format><dc:type
           rdf:resource="http://purl.org/dc/dcmitype/StillImage" /><dc:title></dc:title></cc:Work></rdf:RDF></metadata><defs
     id="defs7" /><sodipodi:namedview
     pagecolor="#ffffff"
     bordercolor="#666666"
     borderopacity="1"
     objecttolerance="10"
     gridtolerance="10"
     guidetolerance="10"
     inkscape:pageopacity="0"
     inkscape:pageshadow="2"
     inkscape:window-width="1869"
     inkscape:window-height="1056"
     id="namedview5"
     showgrid="false"
     showguides="true"
     inkscape:guide-bbox="true"
     inkscape:zoom="13.906433"
     inkscape:cx="17.049149"
     inkscape:cy="22.338436"
     inkscape:window-x="51"
     inkscape:window-y="24"
     inkscape:window-maximized="1"
     inkscape:current-layer="Layer_1" /><path
     d="m 27.995234,27.696051 14.027631,0 c 2.219735,0 4.018937,-1.799202 4.018368,-4.018368 5.69e-4,-2.218029 -1.799769,-4.018367 -4.017799,-4.017798 l -14.028769,0 0,-14.0287693 c 5.69e-4,-2.21803 -1.799769,-4.0183677 -4.017798,-4.0177994 -2.219736,0 -4.018937,1.7992011 -4.018368,4.0183674 l 0,14.0276323 -14.0276317,0 c -2.2197347,0 -4.0189358,1.799201 -4.0183675,4.018367 0,1.109299 0.4500844,2.114034 1.1769253,2.840874 0.7268409,0.726841 1.7321432,1.177494 2.8408739,1.176925 l 14.0282,5.69e-4 0,14.028768 c 0,1.109299 0.450084,2.114033 1.176926,2.840874 0.72684,0.726841 1.732142,1.177494 2.840873,1.176925 2.219735,0 4.018936,-1.799201 4.018367,-4.018367 l 5.69e-4,-14.0282 z"
     id="path3"
     style="fill:#ffffff"
     inkscape:connector-curvature="0" /></svg>