<?xml version="1.0" encoding="UTF-8" standalone="no"?>
<!-- Generator: Adobe Illustrator 16.0.0, SVG Export Plug-In . SVG Version: 6.00 Build 0)  -->

<svg
   xmlns:dc="http://purl.org/dc/elements/1.1/"
   xmlns:cc="http://creativecommons.org/ns#"
   xmlns:rdf="http://www.w3.org/1999/02/22-rdf-syntax-ns#"
   xmlns:svg="http://www.w3.org/2000/svg"
   xmlns="http://www.w3.org/2000/svg"
   xmlns:sodipodi="http://sodipodi.sourceforge.net/DTD/sodipodi-0.dtd"
   xmlns:inkscape="http://www.inkscape.org/namespaces/inkscape"
   version="1.1"
   id="Artwork"
   x="0px"
   y="0px"
   width="512px"
   height="512px"
   viewBox="0 0 512 512"
   enable-background="new 0 0 512 512"
   xml:space="preserve"
   inkscape:version="0.48.4 r9939"
   sodipodi:docname="uploadBranco.svg"><metadata
     id="metadata13"><rdf:RDF><cc:Work
         rdf:about=""><dc:format>image/svg+xml</dc:format><dc:type
           rdf:resource="http://purl.org/dc/dcmitype/StillImage" /><dc:title></dc:title></cc:Work></rdf:RDF></metadata><defs
     id="defs11" /><sodipodi:namedview
     pagecolor="#ffffff"
     bordercolor="#666666"
     borderopacity="1"
     objecttolerance="10"
     gridtolerance="10"
     guidetolerance="10"
     inkscape:pageopacity="0"
     inkscape:pageshadow="2"
     inkscape:window-width="1869"
     inkscape:window-height="1056"
     id="namedview9"
     showgrid="false"
     showguides="true"
     inkscape:guide-bbox="true"
     inkscape:zoom="0.5"
     inkscape:cx="-300.75311"
     inkscape:cy="379.23074"
     inkscape:window-x="51"
     inkscape:window-y="24"
     inkscape:window-maximized="1"
     inkscape:current-layer="g3" /><g
     id="g3"><path
       d="M469.037,423.684H50.43c-18.25,0-33.048,14.42-33.048,32.671c0,18.25,14.798,32.67,33.048,32.67h418.607   c18.249,0,33.047-14.42,33.047-32.67C502.084,438.104,487.286,423.684,469.037,423.684z"
       id="path5"
       style="fill:#70543b;fill-opacity:1" /><path
       d="m 410.223,240.346 c 7.713,-9.833 6.545,-21.071 0.811,-33.762 -10e-4,0 -94.86,-133.365 -126.3,-177.947 -13.862,-19.657 -37.98,-17.842 -50.002,0 -30.483,45.242 -126.299,177.947 -126.299,177.947 -7.234,10.19 -6.902,23.929 0.811,33.762 9.216,9.654 18.484,10.489 32.602,9.654 l 62.01372,0 1.78128,113.908 c -0.53,7.827 2.224,15.52 7.6,21.238 5.376,5.712 12.887,8.935 20.73,8.889 l 51.525,0 c 7.844,0.046 15.354,-3.176 20.73,-8.889 5.376,-5.718 8.13,-13.412 7.6,-21.238 L 313.93571,250.08091 380.121,250 c 11.617,0.102 22.386,0.18 30.102,-9.654"
       id="path7"
       inkscape:connector-curvature="0"
       sodipodi:nodetypes="ccccccccccccccccc"
       style="fill:#70543b;fill-opacity:1" /></g></svg>